<?xml version="1.0" encoding="utf-8"?>
<!-- Generator: Adobe Illustrator 16.0.0, SVG Export Plug-In . SVG Version: 6.00 Build 0)  -->
<!DOCTYPE svg PUBLIC "-//W3C//DTD SVG 1.1//EN" "http://www.w3.org/Graphics/SVG/1.1/DTD/svg11.dtd">
<svg version="1.1" id="Layer_1" xmlns="http://www.w3.org/2000/svg" xmlns:xlink="http://www.w3.org/1999/xlink" x="0px" y="0px"
	 width="792px" height="612px" viewBox="0 0 792 612" enable-background="new 0 0 792 612" xml:space="preserve">
<g>
	<path fill="#F15E62" d="M180.362,293.616h40.872l-3.06,14.439h-40.872l-8.077,37.936h-17.62l19.456-91.779h60.696l-3.181,15.052
		h-43.075L180.362,293.616z"/>
	<path fill="#F15E62" d="M237.63,345.991h-15.419l19.456-91.779h15.42L237.63,345.991z"/>
	<path fill="#F15E62" d="M268.345,345.991h-15.418l13.704-64.244h15.419L268.345,345.991z M285.109,267.306h-15.418l2.691-13.094
		h15.42L285.109,267.306z"/>
	<path fill="#F15E62" d="M313.009,281.747l-2.081,9.666h0.49c1.305-2.365,2.795-4.241,4.467-5.629
		c1.671-1.387,3.445-2.427,5.323-3.121c1.877-0.691,3.874-1.141,5.997-1.346c2.12-0.203,4.323-0.306,6.607-0.306
		c4.241,0,7.667,0.449,10.278,1.347c2.611,0.898,4.569,2.263,5.875,4.099c1.304,1.836,2.02,4.182,2.141,7.036
		c0.123,2.857-0.226,6.241-1.04,10.157l-9.055,42.341h-15.419l8.688-40.75c0.49-2.282,0.736-4.201,0.736-5.752
		c0-1.631-0.328-2.937-0.98-3.915c-0.653-0.979-1.733-1.692-3.242-2.142c-1.511-0.448-3.489-0.673-5.936-0.673
		c-3.347,0-6.119,0.389-8.321,1.163c-2.204,0.775-3.998,1.917-5.385,3.425c-1.388,1.512-2.489,3.387-3.304,5.63
		c-0.816,2.245-1.51,4.793-2.08,7.648l-7.465,35.365h-15.418l13.705-64.244H313.009z"/>
	<path fill="#F15E62" d="M400.729,336.813h-0.363c-1.457,2.122-3.063,3.836-4.817,5.14c-1.755,1.307-3.59,2.306-5.506,3
		c-1.919,0.692-3.877,1.161-5.874,1.405c-2.001,0.246-3.978,0.368-5.936,0.368c-5.549,0-9.79-0.734-12.727-2.204
		c-2.937-1.467-4.955-3.548-6.057-6.239c-1.103-2.693-1.49-5.937-1.164-9.729c0.324-3.794,0.98-8.056,1.958-12.787
		c1.06-4.896,2.204-9.463,3.427-13.706c1.224-4.241,2.956-7.933,5.201-11.075c2.243-3.14,5.201-5.586,8.873-7.342
		c3.671-1.753,8.482-2.631,14.438-2.631c4.563,0,8.383,0.673,11.459,2.02c3.074,1.346,5.18,4.141,6.314,8.382h0.484l1.457-9.666
		h15.406l-13.707,64.122c-1.213,5.79-2.711,10.543-4.492,14.255s-4.086,6.629-6.92,8.751c-2.834,2.12-6.312,3.588-10.43,4.405
		c-4.121,0.814-9.118,1.224-14.991,1.224c-3.915,0-7.484-0.244-10.708-0.734c-3.223-0.489-5.854-1.489-7.892-2.997
		c-2.041-1.512-3.387-3.715-4.038-6.609c-0.655-2.896-0.327-6.751,0.979-11.563h14.439c-0.489,2.203-0.653,3.977-0.489,5.322
		c0.163,1.347,0.632,2.365,1.407,3.06c0.775,0.693,1.896,1.163,3.364,1.407c1.47,0.244,3.306,0.367,5.508,0.367
		c3.262,0,5.976-0.204,8.138-0.611c2.16-0.409,3.936-1.123,5.322-2.142c1.388-1.021,2.488-2.408,3.305-4.161
		c0.815-1.755,1.508-4.019,2.081-6.791L400.729,336.813z M387.35,293.493c-1.836,0.49-3.427,1.429-4.773,2.815
		c-1.346,1.388-2.509,3.345-3.486,5.874c-0.98,2.529-1.878,5.793-2.693,9.789c-0.733,3.672-1.345,6.935-1.835,9.79
		c-0.489,2.857-0.512,5.261-0.062,7.22c0.448,1.958,1.487,3.447,3.121,4.467c1.631,1.021,4.16,1.528,7.587,1.528
		c3.834,0,6.914-0.488,9.239-1.468c2.325-0.979,4.16-2.425,5.505-4.345c1.348-1.914,2.406-4.302,3.184-7.157
		c0.773-2.855,1.568-6.199,2.385-10.035c0.734-3.426,1.182-6.363,1.348-8.811c0.162-2.447-0.145-4.425-0.918-5.936
		c-0.777-1.508-2.102-2.63-3.977-3.365c-1.879-0.734-4.488-1.101-7.833-1.101C391.449,292.76,389.186,293.004,387.35,293.493z"/>
	<path fill="#F15E62" d="M487.877,325.555c-1.061,5.06-2.592,8.995-4.588,11.81c-2.002,2.814-4.447,4.916-7.344,6.302
		c-2.895,1.388-6.221,2.244-9.973,2.57c-3.754,0.324-7.914,0.489-12.482,0.489c-6.117,0-10.994-0.531-14.623-1.592
		c-3.631-1.058-6.283-2.854-7.953-5.384c-1.674-2.527-2.447-5.893-2.326-10.095s0.838-9.402,2.141-15.603
		c1.225-5.71,2.611-10.647,4.162-14.808c1.549-4.161,3.65-7.586,6.303-10.279c2.65-2.692,6.057-4.69,10.219-5.995
		c4.16-1.305,9.502-1.959,16.029-1.959c6.607,0,11.768,0.551,15.479,1.651c3.713,1.103,6.322,2.999,7.832,5.69
		c1.51,2.692,2.1,6.345,1.775,10.953c-0.326,4.609-1.223,10.423-2.691,17.437H445.66c-0.734,3.428-1.268,6.324-1.592,8.689
		c-0.326,2.367-0.184,4.242,0.43,5.63c0.609,1.388,1.813,2.386,3.609,2.998c1.793,0.61,4.404,0.916,7.832,0.916
		c2.119,0,4.078-0.039,5.873-0.121c1.793-0.081,3.404-0.407,4.834-0.979c1.426-0.57,2.631-1.509,3.609-2.814
		c0.98-1.305,1.713-3.141,2.203-5.508H487.877z M476.496,306.955c0.734-3.263,1.121-5.854,1.164-7.771
		c0.039-1.915-0.367-3.344-1.225-4.282c-0.855-0.938-2.203-1.53-4.037-1.775c-1.836-0.245-4.346-0.366-7.527-0.366
		c-3.346,0-5.996,0.204-7.953,0.611c-1.959,0.41-3.529,1.144-4.713,2.203c-1.182,1.061-2.08,2.509-2.691,4.344
		s-1.203,4.182-1.775,7.037H476.496z"/>
	<path fill="#F15E62" d="M522.631,281.747l-2.203,8.442h0.611c2.283-3.589,5.098-6.016,8.443-7.281
		c3.344-1.264,6.893-1.896,10.646-1.896c3.428,0,6.119,0.488,8.076,1.469c1.959,0.979,3.385,2.346,4.283,4.1
		c0.898,1.755,1.326,3.875,1.285,6.363c-0.043,2.489-0.387,5.243-1.041,8.259l-1.1,5.141h-14.441l0.734-3.305
		c0.326-1.631,0.553-3.078,0.674-4.344c0.121-1.264,0-2.344-0.367-3.243c-0.367-0.896-1.021-1.569-1.957-2.019
		c-0.941-0.448-2.307-0.673-4.1-0.673c-4.57,0-7.936,1.224-10.098,3.671s-3.607,5.752-4.344,9.912l-8.443,39.648h-15.418
		l13.705-64.244H522.631z"/>
	<path fill="#FFFFFF" d="M556.648,345.991H541.23l3.549-16.765h15.418L556.648,345.991z"/>
	<path fill="#FFFFFF" d="M628.846,321.517c-1.143,5.304-2.57,9.588-4.281,12.849c-1.715,3.265-3.916,5.813-6.609,7.648
		c-2.693,1.836-5.977,3.08-9.85,3.732c-3.877,0.652-8.506,0.979-13.891,0.979c-5.873,0-10.584-0.489-14.133-1.469
		c-3.549-0.979-6.119-2.711-7.709-5.201c-1.592-2.487-2.326-5.831-2.203-10.034c0.123-4.2,0.875-9.563,2.264-16.092
		c1.223-5.629,2.59-10.503,4.1-14.623c1.508-4.119,3.549-7.546,6.117-10.28c2.57-2.732,5.895-4.751,9.975-6.056
		c4.078-1.305,9.258-1.959,15.541-1.959c4.73,0,8.871,0.267,12.42,0.796c3.549,0.531,6.383,1.611,8.506,3.242
		c2.121,1.634,3.467,3.977,4.037,7.037c0.57,3.058,0.326,7.118-0.734,12.175h-15.418c0.49-2.447,0.693-4.424,0.611-5.935
		c-0.082-1.509-0.572-2.671-1.469-3.486c-0.898-0.815-2.201-1.366-3.914-1.653c-1.713-0.285-3.918-0.428-6.609-0.428
		c-3.346,0-5.977,0.326-7.893,0.979c-1.918,0.654-3.469,1.795-4.65,3.427c-1.184,1.633-2.141,3.793-2.875,6.485
		s-1.512,6.118-2.326,10.279c-0.898,3.998-1.57,7.341-2.02,10.034c-0.449,2.692-0.428,4.854,0.063,6.485
		c0.49,1.633,1.549,2.797,3.182,3.488c1.631,0.694,4.162,1.039,7.586,1.039c3.182,0,5.711-0.162,7.588-0.488
		c1.875-0.324,3.406-0.979,4.588-1.958c1.184-0.979,2.08-2.345,2.693-4.099c0.611-1.753,1.242-4.059,1.896-6.915H628.846z"/>
	<path fill="#FFFFFF" d="M691.256,282.663c3.752,1.103,6.404,2.918,7.955,5.446c1.549,2.529,2.201,5.916,1.957,10.156
		c-0.246,4.243-1.021,9.466-2.326,15.664c-1.305,6.201-2.732,11.401-4.281,15.603c-1.551,4.202-3.633,7.568-6.242,10.096
		c-2.611,2.529-6.037,4.345-10.279,5.445c-4.242,1.102-9.709,1.652-16.396,1.652c-6.691,0-11.912-0.551-15.666-1.652
		c-3.752-1.101-6.404-2.916-7.953-5.445c-1.551-2.527-2.203-5.894-1.957-10.096c0.244-4.201,1.02-9.401,2.324-15.603
		c1.305-6.198,2.732-11.421,4.283-15.664c1.549-4.24,3.629-7.627,6.242-10.156c2.609-2.528,6.035-4.344,10.277-5.446
		c4.242-1.101,9.709-1.651,16.398-1.651S687.502,281.563,691.256,282.663z M664.762,293.616c-2.08,0.571-3.793,1.651-5.139,3.243
		c-1.348,1.591-2.428,3.773-3.244,6.546c-0.814,2.774-1.713,6.324-2.691,10.647c-0.898,4.324-1.512,7.831-1.836,10.523
		c-0.326,2.691-0.143,4.814,0.551,6.363c0.693,1.551,1.957,2.612,3.793,3.182c1.836,0.571,4.467,0.855,7.895,0.855
		c3.426,0,6.178-0.284,8.26-0.855c2.08-0.569,3.793-1.631,5.141-3.182c1.346-1.549,2.426-3.672,3.24-6.363
		c0.816-2.692,1.672-6.199,2.572-10.523c0.979-4.323,1.629-7.873,1.957-10.647c0.326-2.772,0.141-4.955-0.551-6.546
		c-0.693-1.592-1.957-2.672-3.793-3.243c-1.836-0.569-4.467-0.856-7.895-0.856C669.596,292.76,666.844,293.047,664.762,293.616z"/>
</g>
</svg>
