<?xml version="1.0" encoding="utf-8"?>
<!-- Generator: Adobe Illustrator 16.0.0, SVG Export Plug-In . SVG Version: 6.00 Build 0)  -->
<!DOCTYPE svg PUBLIC "-//W3C//DTD SVG 1.1//EN" "http://www.w3.org/Graphics/SVG/1.1/DTD/svg11.dtd">
<svg version="1.1" id="Layer_1" xmlns="http://www.w3.org/2000/svg" xmlns:xlink="http://www.w3.org/1999/xlink" x="0px" y="0px"
	 width="160px" height="151px" viewBox="0 0 160 151" enable-background="new 0 0 160 151" xml:space="preserve">
<g>
	<path fill="#E6E7E8" d="M133.898,63.709c0,0-0.002-0.002-0.002-0.003C133.896,63.707,133.898,63.708,133.898,63.709z"/>
	<path fill="#E6E7E8" d="M133.831,63.457c0-0.001,0-0.003,0-0.004C133.831,63.454,133.831,63.456,133.831,63.457z"/>
	<path fill="#E6E7E8" d="M133.698,62.978c-0.002-0.004-0.004-0.008-0.004-0.011C133.694,62.97,133.696,62.974,133.698,62.978z"/>
	<path fill="#E6E7E8" d="M133.766,63.214c0-0.002-0.002-0.005-0.002-0.008C133.764,63.208,133.766,63.211,133.766,63.214z"/>
	<path fill="#E6E7E8" d="M133.628,62.749c0-0.004-0.002-0.008-0.002-0.012C133.626,62.741,133.628,62.745,133.628,62.749z"/>
	<path fill="#E6E7E8" d="M133.963,63.968c0,0,0-0.001,0-0.001C133.963,63.967,133.963,63.967,133.963,63.968z"/>
	<path fill="#E6E7E8" d="M133.147,61.389c0-0.003-0.002-0.007-0.004-0.01C133.146,61.382,133.147,61.386,133.147,61.389z"/>
	<path fill="#E6E7E8" d="M133.214,61.555c-0.002-0.004-0.004-0.005-0.004-0.008C133.21,61.55,133.212,61.551,133.214,61.555z"/>
	<path fill="#E6E7E8" d="M133.028,61.086c-0.002-0.001-0.002-0.002-0.002-0.004C133.026,61.083,133.026,61.085,133.028,61.086z"/>
	<path fill="#E6E7E8" d="M133.278,61.732c-0.002-0.004-0.002-0.009-0.004-0.015C133.276,61.723,133.276,61.728,133.278,61.732z"/>
	<path fill="#E6E7E8" d="M133.558,62.528c0-0.004-0.004-0.008-0.004-0.013C133.554,62.52,133.558,62.523,133.558,62.528z"/>
	<path fill="#E6E7E8" d="M133.348,61.917c-0.002-0.005-0.004-0.009-0.004-0.014C133.344,61.908,133.346,61.912,133.348,61.917z"/>
	<path fill="#E6E7E8" d="M133.488,62.315c-0.002-0.004-0.004-0.007-0.004-0.011C133.484,62.308,133.486,62.311,133.488,62.315z"/>
	<path fill="#E6E7E8" d="M133.418,62.112c-0.004-0.005-0.004-0.009-0.004-0.014C133.414,62.103,133.414,62.107,133.418,62.112z"/>
</g>
<g>
	<path fill="#E6E7E8" d="M46.407,44.391c0,0,0,0,0.002,0C46.407,44.391,46.407,44.391,46.407,44.391z"/>
	<path fill="#E6E7E8" d="M44.375,46.586c0.006-0.005,0.01-0.01,0.012-0.015C44.385,46.576,44.381,46.581,44.375,46.586z"/>
	<path fill="#E6E7E8" d="M46.205,44.58c0.003-0.001,0.003-0.003,0.005-0.004C46.208,44.576,46.208,44.579,46.205,44.58z"/>
	<path fill="#E6E7E8" d="M44.731,46.15c0.004-0.005,0.008-0.011,0.014-0.017C44.739,46.139,44.735,46.145,44.731,46.15z"/>
	<path fill="#E6E7E8" d="M44.603,46.306c0.006-0.008,0.01-0.014,0.016-0.021C44.612,46.292,44.608,46.298,44.603,46.306z"/>
	<path fill="#E6E7E8" d="M44.179,46.837c0.004-0.003,0.006-0.006,0.008-0.01C44.185,46.831,44.183,46.834,44.179,46.837z"/>
	<path fill="#E6E7E8" d="M44.485,46.451c0.004-0.007,0.01-0.014,0.015-0.02C44.495,46.438,44.489,46.444,44.485,46.451z"/>
	<path fill="#E6E7E8" d="M44.093,46.948c0.002-0.001,0.004-0.003,0.004-0.004C44.097,46.945,44.095,46.947,44.093,46.948z"/>
	<path fill="#E6E7E8" d="M44.277,46.709c0.002-0.001,0.004-0.003,0.006-0.004C44.281,46.707,44.279,46.708,44.277,46.709z"/>
	<path fill="#E6E7E8" d="M43.742,47.413c-0.002,0-0.002,0.001-0.002,0.001C43.74,47.414,43.74,47.413,43.742,47.413z"/>
	<path fill="#E6E7E8" d="M44.862,45.994c0.007-0.006,0.013-0.013,0.017-0.018C44.875,45.981,44.869,45.988,44.862,45.994z"/>
	<path fill="#E6E7E8" d="M45.835,44.942c-0.004,0.002-0.006,0.005-0.008,0.008C45.829,44.947,45.831,44.944,45.835,44.942z"/>
	<path fill="#E6E7E8" d="M46.012,44.766c0.002-0.001,0.004-0.004,0.006-0.006C46.016,44.762,46.014,44.765,46.012,44.766z"/>
	<path fill="#E6E7E8" d="M45.646,45.134c0.004-0.004,0.008-0.009,0.01-0.012C45.653,45.125,45.649,45.13,45.646,45.134z"/>
	<path fill="#E6E7E8" d="M43.822,47.304c-0.006,0.005-0.01,0.012-0.014,0.018C43.812,47.316,43.816,47.31,43.822,47.304z"/>
	<path fill="#E6E7E8" d="M45.475,45.313c0.004-0.005,0.007-0.008,0.012-0.013C45.481,45.305,45.479,45.308,45.475,45.313z"/>
	<path fill="#E6E7E8" d="M45.005,45.829c0.004-0.005,0.01-0.009,0.014-0.015C45.015,45.82,45.009,45.824,45.005,45.829z"/>
	<path fill="#E6E7E8" d="M45.154,45.661c0.004-0.005,0.008-0.01,0.014-0.015C45.162,45.651,45.158,45.656,45.154,45.661z"/>
	<path fill="#E6E7E8" d="M45.312,45.487c0.004-0.004,0.008-0.008,0.01-0.011C45.319,45.479,45.315,45.483,45.312,45.487z"/>
</g>
<g>
	<g>
		<g>
			<path fill="#E6E7E8" d="M73.672,130.083c0.006,0.002,0.012,0.002,0.018,0.004C73.684,130.085,73.678,130.085,73.672,130.083z"/>
			<path fill="#E6E7E8" d="M73.426,130.019c0.006,0.002,0.009,0.004,0.015,0.004C73.435,130.022,73.432,130.021,73.426,130.019z"/>
			<path fill="#E6E7E8" d="M74.368,130.245c0.006,0,0.014,0.002,0.021,0.004C74.382,130.247,74.374,130.245,74.368,130.245z"/>
			<path fill="#E6E7E8" d="M74.141,130.194c0.008,0.002,0.016,0.004,0.023,0.006C74.156,130.198,74.148,130.196,74.141,130.194z"/>
			<path fill="#E6E7E8" d="M72.922,129.876c0.002,0,0.006,0,0.008,0.002C72.928,129.876,72.924,129.876,72.922,129.876z"/>
			<path fill="#E6E7E8" d="M72.661,129.796c0.002,0,0.004,0,0.006,0C72.665,129.796,72.663,129.796,72.661,129.796z"/>
			<path fill="#E6E7E8" d="M74.587,130.288c0.008,0.002,0.016,0.004,0.025,0.006C74.603,130.292,74.595,130.29,74.587,130.288z"/>
			<path fill="#E6E7E8" d="M73.178,129.95c0.004,0,0.006,0.002,0.01,0.002C73.184,129.952,73.182,129.95,73.178,129.95z"/>
			<path fill="#E6E7E8" d="M73.908,130.142c0.008,0.002,0.015,0.004,0.021,0.006C73.923,130.146,73.916,130.144,73.908,130.142z"/>
			<path fill="#E6E7E8" d="M76.022,130.524c0.021,0.002,0.038,0.006,0.058,0.008C76.061,130.53,76.044,130.526,76.022,130.524z"/>
			<path fill="#E6E7E8" d="M75.881,130.505c0.004,0,0.008,0.002,0.012,0.002C75.889,130.507,75.885,130.505,75.881,130.505z"/>
			<path fill="#E6E7E8" d="M75.726,130.483c0.004,0,0.006,0.002,0.01,0.002C75.731,130.485,75.729,130.483,75.726,130.483z"/>
			<path fill="#E6E7E8" d="M76.159,130.542c0.004,0,0.006,0.002,0.008,0.002C76.165,130.544,76.163,130.542,76.159,130.542z"/>
			<path fill="#E6E7E8" d="M75.381,130.433c0.01,0,0.018,0.002,0.025,0.004C75.398,130.435,75.391,130.433,75.381,130.433z"/>
			<path fill="#E6E7E8" d="M75.558,130.46c0.008,0,0.014,0.002,0.023,0.002C75.571,130.462,75.565,130.46,75.558,130.46z"/>
			<path fill="#E6E7E8" d="M75.001,130.368c0.008,0,0.016,0.002,0.023,0.004C75.017,130.37,75.009,130.368,75.001,130.368z"/>
			<path fill="#E6E7E8" d="M74.799,130.331c0.008,0.002,0.017,0.004,0.024,0.004C74.815,130.335,74.807,130.333,74.799,130.331z"/>
			<path fill="#E6E7E8" d="M75.198,130.401c0.006,0.002,0.014,0.002,0.02,0.004C75.212,130.403,75.204,130.403,75.198,130.401z"/>
			<path fill="#EAEAEA" d="M131.097,136.563c-1.672-0.303-43.935-4.793-53.058-5.803c0.004,0,0.006,0,0.006,0
				c-0.012,0-31.511,0.104-31.823-51.242c-1.692,18.529-3.965,44.242-4.172,47.059c-0.312,4.27,0.276,14.271,6.264,19.295
				c5.985,5.023,14.211,4.951,15.997,5.121c1.787,0.174,62.473-3.068,65.804-3.266c3.327-0.197,7.774-0.725,8.201-5.199
				C138.739,138.056,132.93,136.896,131.097,136.563z"/>
			<path fill="#E6E7E8" d="M76.494,130.585c-0.008,0-0.012-0.002-0.018-0.002C76.482,130.583,76.486,130.585,76.494,130.585z"/>
			<path fill="#E6E7E8" d="M76.61,130.599c-0.002,0-0.002,0-0.004,0C76.608,130.599,76.608,130.599,76.61,130.599z"/>
			<path fill="#E6E7E8" d="M76.979,130.642c-0.012,0-0.023-0.002-0.037-0.004C76.955,130.64,76.967,130.642,76.979,130.642z"/>
			<path fill="#E6E7E8" d="M77.486,130.7c-0.027-0.004-0.052-0.006-0.077-0.01C77.435,130.694,77.459,130.696,77.486,130.7z"/>
			<path fill="#E6E7E8" d="M77.743,130.728c-0.018,0-0.033-0.004-0.051-0.006C77.71,130.724,77.726,130.728,77.743,130.728z"/>
			<path fill="#E6E7E8" d="M76.771,130.618L76.771,130.618L76.771,130.618z"/>
		</g>
		<path fill="#FFFFFF" d="M78.304,131.019c-0.882-0.096-1.456-0.162-1.655-0.188c-2.206-0.289-12.924-1.432-13.44-14.664
			c-0.04-0.668-0.021-1.041-0.021-1.041s0.071-53.08,0.071-56.038c0.002-2.958-0.644-11.379-6.595-11.542
			c-5.952-0.163-7.796,8.644-8.39,13.43c-0.203,1.625-0.921,9.262-1.793,18.8C43.885,131.044,78.292,131.019,78.304,131.019z"/>
	</g>
	<g>
		<g>
			<path fill="#E6E7E8" d="M133.408,62.83c0-0.005-0.002-0.01-0.004-0.017C133.406,62.82,133.408,62.825,133.408,62.83z"/>
			<path fill="#E6E7E8" d="M133.477,63.075c-0.002-0.004-0.002-0.009-0.004-0.015C133.475,63.065,133.475,63.07,133.477,63.075z"/>
			<path fill="#E6E7E8" d="M133.2,62.145c-0.002-0.008-0.006-0.015-0.008-0.023C133.194,62.129,133.198,62.137,133.2,62.145z"/>
			<path fill="#E6E7E8" d="M133.27,62.365c0-0.007-0.002-0.014-0.006-0.023C133.268,62.351,133.27,62.358,133.27,62.365z"/>
			<path fill="#E6E7E8" d="M133.603,63.584c0-0.002,0-0.005,0-0.007C133.603,63.579,133.603,63.582,133.603,63.584z"/>
			<path fill="#E6E7E8" d="M133.665,63.85c0-0.001,0-0.003,0-0.005C133.665,63.847,133.665,63.849,133.665,63.85z"/>
			<path fill="#E6E7E8" d="M133.13,61.932c-0.002-0.008-0.006-0.016-0.01-0.024C133.124,61.916,133.128,61.923,133.13,61.932z"/>
			<path fill="#E6E7E8" d="M133.541,63.326c0-0.004-0.002-0.007-0.002-0.01C133.539,63.319,133.541,63.322,133.541,63.326z"/>
			<path fill="#E6E7E8" d="M133.341,62.594c-0.002-0.006-0.004-0.014-0.006-0.02C133.337,62.58,133.341,62.588,133.341,62.594z"/>
			<path fill="#E6E7E8" d="M132.615,60.568c-0.008-0.018-0.015-0.036-0.022-0.053C132.601,60.532,132.607,60.55,132.615,60.568z"/>
			<path fill="#E6E7E8" d="M132.67,60.701c-0.002-0.004-0.004-0.007-0.006-0.011C132.666,60.693,132.668,60.697,132.67,60.701z"/>
			<path fill="#E6E7E8" d="M132.729,60.847c-0.002-0.003-0.002-0.006-0.004-0.009C132.728,60.84,132.728,60.844,132.729,60.847z"/>
			<path fill="#E6E7E8" d="M132.562,60.441c0-0.003-0.002-0.005-0.004-0.008C132.56,60.436,132.562,60.438,132.562,60.441z"/>
			<path fill="#E6E7E8" d="M132.855,61.171c-0.004-0.008-0.006-0.016-0.01-0.023C132.85,61.155,132.852,61.163,132.855,61.171z"/>
			<path fill="#E6E7E8" d="M132.791,61.004c-0.002-0.006-0.005-0.014-0.007-0.021C132.786,60.99,132.789,60.998,132.791,61.004z"/>
			<path fill="#E6E7E8" d="M132.991,61.534c-0.002-0.008-0.006-0.016-0.01-0.023C132.985,61.518,132.989,61.525,132.991,61.534z"/>
			<path fill="#E6E7E8" d="M133.06,61.729c-0.004-0.01-0.006-0.018-0.008-0.026C133.054,61.711,133.056,61.719,133.06,61.729z"/>
			<path fill="#E6E7E8" d="M132.923,61.347c-0.002-0.007-0.007-0.014-0.009-0.021C132.916,61.333,132.921,61.34,132.923,61.347z"/>
			<path fill="#E6E7E8" d="M132.434,60.129c0,0.005,0.002,0.011,0.006,0.017C132.436,60.14,132.434,60.134,132.434,60.129z"/>
			<path fill="#E6E7E8" d="M132.387,60.021c0,0.001,0,0.002,0,0.003C132.387,60.023,132.387,60.022,132.387,60.021z"/>
			<path fill="#E6E7E8" d="M132.238,59.679c0.006,0.012,0.01,0.023,0.014,0.035C132.248,59.703,132.244,59.691,132.238,59.679z"/>
			<path fill="#E6E7E8" d="M132.035,59.21c0.009,0.025,0.021,0.049,0.032,0.073C132.056,59.26,132.044,59.236,132.035,59.21z"/>
			<path fill="#E6E7E8" d="M131.931,58.974c0.006,0.017,0.014,0.032,0.02,0.048C131.944,59.006,131.937,58.991,131.931,58.974z"/>
			<path fill="#E6E7E8" d="M132.323,59.874L132.323,59.874L132.323,59.874z"/>
		</g>
	</g>
	<g>
		<g>
			<path fill="#E6E7E8" d="M45.239,44.13c-0.004,0.004-0.008,0.008-0.014,0.013C45.231,44.138,45.235,44.134,45.239,44.13z"/>
			<path fill="#E6E7E8" d="M45.416,43.949c-0.004,0.005-0.008,0.008-0.01,0.012C45.408,43.957,45.412,43.954,45.416,43.949z"/>
			<path fill="#E6E7E8" d="M44.749,44.653c-0.004,0.006-0.01,0.013-0.016,0.019C44.739,44.666,44.745,44.66,44.749,44.653z"/>
			<path fill="#E6E7E8" d="M44.906,44.482c-0.006,0.005-0.01,0.011-0.016,0.017C44.896,44.494,44.9,44.488,44.906,44.482z"/>
			<path fill="#E6E7E8" d="M45.793,43.584c-0.002,0.001-0.004,0.002-0.006,0.005C45.789,43.586,45.791,43.585,45.793,43.584z"/>
			<path fill="#E6E7E8" d="M45.992,43.396c-0.002,0.002-0.004,0.003-0.004,0.004C45.988,43.399,45.99,43.398,45.992,43.396z"/>
			<path fill="#E6E7E8" d="M44.603,44.821c-0.006,0.007-0.014,0.013-0.018,0.02C44.589,44.834,44.597,44.828,44.603,44.821z"/>
			<path fill="#E6E7E8" d="M45.601,43.767c-0.004,0.002-0.004,0.005-0.008,0.007C45.597,43.772,45.597,43.77,45.601,43.767z"/>
			<path fill="#E6E7E8" d="M45.067,44.308c-0.004,0.005-0.01,0.009-0.014,0.015C45.058,44.317,45.063,44.313,45.067,44.308z"/>
			<path fill="#E6E7E8" d="M43.68,45.95c-0.01,0.016-0.021,0.03-0.032,0.045C43.659,45.98,43.67,45.966,43.68,45.95z"/>
			<path fill="#E6E7E8" d="M43.768,45.836c-0.002,0.003-0.004,0.006-0.008,0.01C43.764,45.843,43.766,45.839,43.768,45.836z"/>
			<path fill="#E6E7E8" d="M43.865,45.712c-0.002,0.002-0.004,0.005-0.006,0.008C43.861,45.718,43.863,45.715,43.865,45.712z"/>
			<path fill="#E6E7E8" d="M43.597,46.059c-0.002,0.002-0.002,0.004-0.005,0.008C43.595,46.063,43.595,46.061,43.597,46.059z"/>
			<path fill="#E6E7E8" d="M44.081,45.44c-0.006,0.007-0.01,0.013-0.016,0.021C44.071,45.453,44.075,45.447,44.081,45.44z"/>
			<path fill="#E6E7E8" d="M43.972,45.579c-0.006,0.005-0.01,0.012-0.016,0.019C43.962,45.59,43.966,45.584,43.972,45.579z"/>
			<path fill="#E6E7E8" d="M44.327,45.143c-0.005,0.006-0.011,0.013-0.017,0.018C44.316,45.155,44.322,45.149,44.327,45.143z"/>
			<path fill="#E6E7E8" d="M44.46,44.984c-0.006,0.007-0.012,0.014-0.018,0.02C44.448,44.998,44.454,44.991,44.46,44.984z"/>
			<path fill="#E6E7E8" d="M44.2,45.295c-0.006,0.006-0.008,0.011-0.014,0.016C44.192,45.306,44.194,45.301,44.2,45.295z"/>
			<path fill="#E6E7E8" d="M43.393,46.329c0.004-0.005,0.008-0.01,0.011-0.015C43.4,46.319,43.396,46.323,43.393,46.329z"/>
			<path fill="#E6E7E8" d="M43.323,46.422c0.002-0.001,0.002-0.002,0.002-0.002C43.325,46.42,43.325,46.421,43.323,46.422z"/>
			<path fill="#E6E7E8" d="M43.101,46.721c0.008-0.011,0.015-0.021,0.022-0.03C43.115,46.701,43.108,46.71,43.101,46.721z"/>
			<path fill="#E6E7E8" d="M42.798,47.133c0.016-0.023,0.031-0.043,0.049-0.065C42.829,47.09,42.813,47.11,42.798,47.133z"/>
			<path fill="#E6E7E8" d="M42.646,47.341c0.009-0.015,0.021-0.028,0.03-0.043C42.667,47.312,42.654,47.326,42.646,47.341z"/>
			<path fill="#E6E7E8" d="M43.225,46.551c0,0,0,0,0.002,0C43.225,46.551,43.225,46.551,43.225,46.551z"/>
		</g>
	</g>
</g>
</svg>
