<?xml version="1.0" encoding="utf-8"?>
<!-- Generator: Adobe Illustrator 16.0.0, SVG Export Plug-In . SVG Version: 6.00 Build 0)  -->
<!DOCTYPE svg PUBLIC "-//W3C//DTD SVG 1.1//EN" "http://www.w3.org/Graphics/SVG/1.1/DTD/svg11.dtd">
<svg version="1.1" id="Layer_1" xmlns="http://www.w3.org/2000/svg" xmlns:xlink="http://www.w3.org/1999/xlink" x="0px" y="0px"
	 width="160px" height="151px" viewBox="0 0 160 151" enable-background="new 0 0 160 151" xml:space="preserve">
<g>
	<path fill="#E6E7E8" d="M133.898,63.708c0,0-0.002-0.002-0.002-0.003C133.896,63.707,133.898,63.708,133.898,63.708z"/>
	<path fill="#E6E7E8" d="M133.831,63.457c0-0.001,0-0.003,0-0.004C133.831,63.454,133.831,63.455,133.831,63.457z"/>
	<path fill="#E6E7E8" d="M133.698,62.977c-0.002-0.004-0.004-0.008-0.004-0.011C133.694,62.969,133.696,62.973,133.698,62.977z"/>
	<path fill="#E6E7E8" d="M133.766,63.213c0-0.002-0.002-0.005-0.002-0.008C133.764,63.208,133.766,63.211,133.766,63.213z"/>
	<path fill="#E6E7E8" d="M133.628,62.749c0-0.004-0.002-0.008-0.002-0.012C133.626,62.74,133.628,62.745,133.628,62.749z"/>
	<path fill="#E6E7E8" d="M133.963,63.967c0,0,0-0.001,0-0.001C133.963,63.966,133.963,63.967,133.963,63.967z"/>
	<path fill="#E6E7E8" d="M133.147,61.389c0-0.003-0.002-0.007-0.004-0.01C133.146,61.382,133.147,61.385,133.147,61.389z"/>
	<path fill="#E6E7E8" d="M133.214,61.555c-0.002-0.004-0.004-0.005-0.004-0.008C133.21,61.549,133.212,61.551,133.214,61.555z"/>
	<path fill="#E6E7E8" d="M133.028,61.085c-0.002-0.001-0.002-0.002-0.002-0.004C133.026,61.083,133.026,61.084,133.028,61.085z"/>
	<path fill="#E6E7E8" d="M133.278,61.732c-0.002-0.004-0.002-0.009-0.004-0.015C133.276,61.723,133.276,61.728,133.278,61.732z"/>
	<path fill="#E6E7E8" d="M133.558,62.527c0-0.004-0.004-0.008-0.004-0.013C133.554,62.519,133.558,62.523,133.558,62.527z"/>
	<path fill="#E6E7E8" d="M133.348,61.917c-0.002-0.005-0.004-0.009-0.004-0.014C133.344,61.907,133.346,61.911,133.348,61.917z"/>
	<path fill="#E6E7E8" d="M133.488,62.314c-0.002-0.004-0.004-0.007-0.004-0.011C133.484,62.307,133.486,62.311,133.488,62.314z"/>
	<path fill="#E6E7E8" d="M133.418,62.112c-0.004-0.005-0.004-0.009-0.004-0.014C133.414,62.103,133.414,62.107,133.418,62.112z"/>
</g>
<g>
	<path fill="#E6E7E8" d="M46.406,44.39c0,0,0,0,0.002,0C46.406,44.39,46.406,44.39,46.406,44.39z"/>
	<path fill="#E6E7E8" d="M44.374,46.585c0.006-0.005,0.01-0.01,0.012-0.015C44.384,46.575,44.38,46.58,44.374,46.585z"/>
	<path fill="#E6E7E8" d="M46.204,44.579c0.003-0.001,0.003-0.003,0.005-0.004C46.207,44.575,46.207,44.578,46.204,44.579z"/>
	<path fill="#E6E7E8" d="M44.73,46.149c0.004-0.005,0.008-0.011,0.014-0.017C44.738,46.138,44.734,46.144,44.73,46.149z"/>
	<path fill="#E6E7E8" d="M44.602,46.305c0.006-0.008,0.01-0.014,0.016-0.021C44.611,46.291,44.607,46.297,44.602,46.305z"/>
	<path fill="#E6E7E8" d="M44.178,46.836c0.004-0.003,0.006-0.006,0.008-0.01C44.184,46.83,44.182,46.833,44.178,46.836z"/>
	<path fill="#E6E7E8" d="M44.484,46.45c0.004-0.007,0.01-0.014,0.015-0.02C44.494,46.437,44.488,46.443,44.484,46.45z"/>
	<path fill="#E6E7E8" d="M44.092,46.947c0.002-0.001,0.004-0.003,0.004-0.004C44.096,46.944,44.094,46.946,44.092,46.947z"/>
	<path fill="#E6E7E8" d="M44.276,46.708c0.002-0.001,0.004-0.003,0.006-0.004C44.28,46.706,44.278,46.707,44.276,46.708z"/>
	<path fill="#E6E7E8" d="M43.741,47.412c-0.002,0-0.002,0.001-0.002,0.001C43.739,47.413,43.739,47.412,43.741,47.412z"/>
	<path fill="#E6E7E8" d="M44.861,45.993c0.007-0.006,0.013-0.013,0.017-0.018C44.874,45.98,44.868,45.987,44.861,45.993z"/>
	<path fill="#E6E7E8" d="M45.834,44.941c-0.004,0.002-0.006,0.005-0.008,0.008C45.828,44.946,45.83,44.943,45.834,44.941z"/>
	<path fill="#E6E7E8" d="M46.011,44.765c0.002-0.001,0.004-0.004,0.006-0.006C46.015,44.761,46.013,44.764,46.011,44.765z"/>
	<path fill="#E6E7E8" d="M45.645,45.133c0.004-0.004,0.008-0.009,0.01-0.012C45.652,45.124,45.648,45.129,45.645,45.133z"/>
	<path fill="#E6E7E8" d="M43.821,47.303c-0.006,0.005-0.01,0.012-0.014,0.018C43.812,47.315,43.815,47.309,43.821,47.303z"/>
	<path fill="#E6E7E8" d="M45.474,45.312c0.004-0.005,0.007-0.008,0.012-0.013C45.48,45.304,45.478,45.307,45.474,45.312z"/>
	<path fill="#E6E7E8" d="M45.004,45.828c0.004-0.005,0.01-0.009,0.014-0.015C45.014,45.819,45.008,45.823,45.004,45.828z"/>
	<path fill="#E6E7E8" d="M45.153,45.66c0.004-0.005,0.008-0.01,0.014-0.015C45.161,45.65,45.157,45.655,45.153,45.66z"/>
	<path fill="#E6E7E8" d="M45.311,45.486c0.004-0.004,0.008-0.008,0.01-0.011C45.318,45.479,45.314,45.482,45.311,45.486z"/>
</g>
<g>
	<g>
		<g>
			<path fill="#E6E7E8" d="M73.671,130.083c0.006,0.002,0.012,0.002,0.018,0.004C73.683,130.085,73.677,130.085,73.671,130.083z"/>
			<path fill="#E6E7E8" d="M73.425,130.019c0.006,0.002,0.009,0.004,0.015,0.004C73.434,130.022,73.431,130.021,73.425,130.019z"/>
			<path fill="#E6E7E8" d="M74.368,130.245c0.006,0,0.014,0.002,0.021,0.004C74.381,130.247,74.374,130.245,74.368,130.245z"/>
			<path fill="#E6E7E8" d="M74.14,130.194c0.008,0.002,0.016,0.004,0.023,0.006C74.156,130.198,74.148,130.196,74.14,130.194z"/>
			<path fill="#E6E7E8" d="M72.921,129.876c0.002,0,0.006,0,0.008,0.002C72.927,129.876,72.923,129.876,72.921,129.876z"/>
			<path fill="#E6E7E8" d="M72.661,129.796c0.002,0,0.004,0,0.006,0C72.665,129.796,72.663,129.796,72.661,129.796z"/>
			<path fill="#E6E7E8" d="M74.586,130.288c0.008,0.002,0.016,0.004,0.025,0.006C74.602,130.292,74.594,130.29,74.586,130.288z"/>
			<path fill="#E6E7E8" d="M73.177,129.95c0.004,0,0.006,0.002,0.01,0.002C73.183,129.952,73.181,129.95,73.177,129.95z"/>
			<path fill="#E6E7E8" d="M73.908,130.142c0.008,0.002,0.015,0.004,0.021,0.006C73.922,130.146,73.916,130.144,73.908,130.142z"/>
			<path fill="#E6E7E8" d="M76.022,130.524c0.021,0.002,0.038,0.006,0.058,0.008C76.06,130.53,76.043,130.526,76.022,130.524z"/>
			<path fill="#E6E7E8" d="M75.88,130.505c0.004,0,0.008,0.002,0.012,0.002C75.888,130.507,75.884,130.505,75.88,130.505z"/>
			<path fill="#E6E7E8" d="M75.725,130.483c0.004,0,0.006,0.002,0.01,0.002C75.731,130.485,75.729,130.483,75.725,130.483z"/>
			<path fill="#E6E7E8" d="M76.159,130.542c0.004,0,0.006,0.002,0.008,0.002C76.165,130.544,76.163,130.542,76.159,130.542z"/>
			<path fill="#E6E7E8" d="M75.38,130.433c0.01,0,0.018,0.002,0.025,0.004C75.398,130.435,75.39,130.433,75.38,130.433z"/>
			<path fill="#E6E7E8" d="M75.557,130.46c0.008,0,0.014,0.002,0.023,0.002C75.571,130.462,75.565,130.46,75.557,130.46z"/>
			<path fill="#E6E7E8" d="M75,130.368c0.008,0,0.016,0.002,0.023,0.004C75.016,130.37,75.008,130.368,75,130.368z"/>
			<path fill="#E6E7E8" d="M74.798,130.331c0.008,0.002,0.017,0.004,0.024,0.004C74.815,130.335,74.806,130.333,74.798,130.331z"/>
			<path fill="#E6E7E8" d="M75.198,130.401c0.006,0.002,0.014,0.002,0.02,0.004C75.211,130.403,75.204,130.403,75.198,130.401z"/>
			<path fill="#E6E7E8" d="M76.494,130.585c-0.008,0-0.012-0.002-0.018-0.002C76.482,130.583,76.486,130.585,76.494,130.585z"/>
			<path fill="#E6E7E8" d="M76.61,130.599c-0.002,0-0.002,0-0.004,0C76.608,130.599,76.608,130.599,76.61,130.599z"/>
			<path fill="#E6E7E8" d="M76.978,130.642c-0.012,0-0.023-0.002-0.037-0.004C76.955,130.64,76.966,130.642,76.978,130.642z"/>
			<path fill="#E6E7E8" d="M77.486,130.7c-0.027-0.004-0.052-0.006-0.077-0.01C77.434,130.694,77.458,130.696,77.486,130.7z"/>
			<path fill="#E6E7E8" d="M77.743,130.728c-0.018,0-0.033-0.004-0.051-0.006C77.709,130.724,77.725,130.728,77.743,130.728z"/>
			<path fill="#E6E7E8" d="M76.77,130.618L76.77,130.618L76.77,130.618z"/>
		</g>
	</g>
	<g>
		<g>
			<path fill="#E6E7E8" d="M133.408,62.83c0-0.005-0.002-0.01-0.004-0.017C133.406,62.819,133.408,62.825,133.408,62.83z"/>
			<path fill="#E6E7E8" d="M133.477,63.074c-0.002-0.004-0.002-0.009-0.004-0.015C133.475,63.065,133.475,63.07,133.477,63.074z"/>
			<path fill="#E6E7E8" d="M133.2,62.144c-0.002-0.008-0.006-0.015-0.008-0.023C133.194,62.129,133.198,62.136,133.2,62.144z"/>
			<path fill="#E6E7E8" d="M133.27,62.365c0-0.007-0.002-0.014-0.006-0.023C133.268,62.351,133.27,62.358,133.27,62.365z"/>
			<path fill="#E6E7E8" d="M133.603,63.583c0-0.002,0-0.005,0-0.007C133.603,63.579,133.603,63.581,133.603,63.583z"/>
			<path fill="#E6E7E8" d="M133.665,63.85c0-0.001,0-0.003,0-0.005C133.665,63.846,133.665,63.848,133.665,63.85z"/>
			<path fill="#E6E7E8" d="M133.13,61.931c-0.002-0.008-0.006-0.016-0.01-0.024C133.124,61.915,133.128,61.923,133.13,61.931z"/>
			<path fill="#E6E7E8" d="M133.541,63.325c0-0.004-0.002-0.007-0.002-0.01C133.539,63.318,133.541,63.321,133.541,63.325z"/>
			<path fill="#E6E7E8" d="M133.341,62.593c-0.002-0.006-0.004-0.014-0.006-0.02C133.337,62.58,133.341,62.587,133.341,62.593z"/>
			<path fill="#E6E7E8" d="M132.615,60.567c-0.008-0.018-0.015-0.036-0.022-0.053C132.601,60.532,132.607,60.55,132.615,60.567z"/>
			<path fill="#E6E7E8" d="M132.67,60.7c-0.002-0.004-0.004-0.007-0.006-0.011C132.666,60.693,132.668,60.696,132.67,60.7z"/>
			<path fill="#E6E7E8" d="M132.729,60.846c-0.002-0.003-0.002-0.006-0.004-0.009C132.728,60.84,132.728,60.843,132.729,60.846z"/>
			<path fill="#E6E7E8" d="M132.562,60.44c0-0.003-0.002-0.005-0.004-0.008C132.56,60.436,132.562,60.437,132.562,60.44z"/>
			<path fill="#E6E7E8" d="M132.855,61.17c-0.004-0.008-0.006-0.016-0.01-0.023C132.85,61.155,132.852,61.162,132.855,61.17z"/>
			<path fill="#E6E7E8" d="M132.791,61.003c-0.002-0.006-0.005-0.014-0.007-0.021C132.786,60.99,132.789,60.997,132.791,61.003z"/>
			<path fill="#E6E7E8" d="M132.991,61.533c-0.002-0.008-0.006-0.016-0.01-0.023C132.985,61.518,132.989,61.525,132.991,61.533z"/>
			<path fill="#E6E7E8" d="M133.06,61.729c-0.004-0.01-0.006-0.018-0.008-0.026C133.054,61.711,133.056,61.719,133.06,61.729z"/>
			<path fill="#E6E7E8" d="M132.923,61.347c-0.002-0.007-0.007-0.014-0.009-0.021C132.916,61.333,132.921,61.339,132.923,61.347z"/>
			<path fill="#E6E7E8" d="M132.434,60.128c0,0.005,0.002,0.011,0.006,0.017C132.436,60.14,132.434,60.133,132.434,60.128z"/>
			<path fill="#E6E7E8" d="M132.387,60.021c0,0.001,0,0.002,0,0.003C132.387,60.023,132.387,60.021,132.387,60.021z"/>
			<path fill="#E6E7E8" d="M132.238,59.679c0.006,0.012,0.01,0.023,0.014,0.035C132.248,59.702,132.244,59.691,132.238,59.679z"/>
			<path fill="#E6E7E8" d="M132.035,59.21c0.009,0.025,0.021,0.049,0.032,0.073C132.056,59.259,132.044,59.235,132.035,59.21z"/>
			<path fill="#E6E7E8" d="M131.931,58.974c0.006,0.017,0.014,0.032,0.02,0.048C131.944,59.006,131.937,58.991,131.931,58.974z"/>
			<path fill="#E6E7E8" d="M132.323,59.874L132.323,59.874L132.323,59.874z"/>
		</g>
	</g>
	<g>
		<g>
			<path fill="#E6E7E8" d="M45.238,44.129c-0.004,0.004-0.008,0.008-0.014,0.013C45.23,44.137,45.234,44.133,45.238,44.129z"/>
			<path fill="#E6E7E8" d="M45.415,43.948c-0.004,0.005-0.008,0.008-0.01,0.012C45.407,43.956,45.411,43.953,45.415,43.948z"/>
			<path fill="#E6E7E8" d="M44.748,44.652c-0.004,0.006-0.01,0.013-0.016,0.019C44.738,44.665,44.744,44.659,44.748,44.652z"/>
			<path fill="#E6E7E8" d="M44.905,44.481c-0.006,0.005-0.01,0.011-0.016,0.017C44.896,44.493,44.899,44.487,44.905,44.481z"/>
			<path fill="#E6E7E8" d="M45.792,43.583c-0.002,0.001-0.004,0.002-0.006,0.005C45.788,43.585,45.79,43.584,45.792,43.583z"/>
			<path fill="#E6E7E8" d="M45.991,43.396c-0.002,0.002-0.004,0.003-0.004,0.004C45.987,43.398,45.989,43.397,45.991,43.396z"/>
			<path fill="#E6E7E8" d="M44.602,44.82c-0.006,0.007-0.014,0.013-0.018,0.02C44.588,44.833,44.596,44.827,44.602,44.82z"/>
			<path fill="#E6E7E8" d="M45.6,43.766c-0.004,0.002-0.004,0.005-0.008,0.007C45.596,43.771,45.596,43.769,45.6,43.766z"/>
			<path fill="#E6E7E8" d="M45.066,44.307c-0.004,0.005-0.01,0.009-0.014,0.015C45.057,44.316,45.062,44.312,45.066,44.307z"/>
			<path fill="#E6E7E8" d="M43.679,45.949c-0.01,0.016-0.021,0.03-0.032,0.045C43.658,45.979,43.669,45.965,43.679,45.949z"/>
			<path fill="#E6E7E8" d="M43.767,45.835c-0.002,0.003-0.004,0.006-0.008,0.01C43.763,45.842,43.765,45.838,43.767,45.835z"/>
			<path fill="#E6E7E8" d="M43.864,45.711c-0.002,0.002-0.004,0.005-0.006,0.008C43.86,45.717,43.862,45.714,43.864,45.711z"/>
			<path fill="#E6E7E8" d="M43.596,46.058c-0.002,0.002-0.002,0.004-0.005,0.008C43.594,46.062,43.594,46.06,43.596,46.058z"/>
			<path fill="#E6E7E8" d="M44.08,45.439c-0.006,0.007-0.01,0.013-0.016,0.021C44.07,45.452,44.074,45.446,44.08,45.439z"/>
			<path fill="#E6E7E8" d="M43.971,45.578c-0.006,0.005-0.01,0.012-0.016,0.019C43.961,45.589,43.965,45.583,43.971,45.578z"/>
			<path fill="#E6E7E8" d="M44.326,45.142c-0.005,0.006-0.011,0.013-0.017,0.018C44.315,45.154,44.321,45.148,44.326,45.142z"/>
			<path fill="#E6E7E8" d="M44.459,44.983c-0.006,0.007-0.012,0.014-0.018,0.02C44.447,44.997,44.453,44.99,44.459,44.983z"/>
			<path fill="#E6E7E8" d="M44.199,45.294c-0.006,0.006-0.008,0.011-0.014,0.016C44.191,45.305,44.193,45.3,44.199,45.294z"/>
			<path fill="#EAEAEA" d="M10.924,90.722c1.097-1.301,26.107-35.73,31.545-43.141c-0.002,0.001-0.002,0.003-0.006,0.004
				c0.008-0.01,15.667-27.394,60.205-1.992c-15.171-10.733-36.26-25.562-38.592-27.148c-3.531-2.405-12.472-6.897-19.808-4.214
				c-7.333,2.684-11.388,9.857-12.425,11.322C30.801,27.016,3.261,81.297,1.766,84.285c-1.494,2.986-3.263,7.11,0.391,9.716
				C5.812,96.606,9.721,92.146,10.924,90.722z"/>
			<path fill="#E6E7E8" d="M43.392,46.328c0.004-0.005,0.008-0.01,0.011-0.015C43.399,46.318,43.396,46.322,43.392,46.328z"/>
			<path fill="#E6E7E8" d="M43.322,46.421c0.002-0.001,0.002-0.002,0.002-0.002C43.324,46.419,43.324,46.42,43.322,46.421z"/>
			<path fill="#E6E7E8" d="M43.1,46.72c0.008-0.011,0.015-0.021,0.022-0.03C43.114,46.7,43.107,46.709,43.1,46.72z"/>
			<path fill="#E6E7E8" d="M42.797,47.132c0.016-0.023,0.031-0.043,0.049-0.065C42.828,47.089,42.812,47.109,42.797,47.132z"/>
			<path fill="#E6E7E8" d="M42.645,47.34c0.009-0.015,0.021-0.028,0.03-0.043C42.666,47.312,42.653,47.325,42.645,47.34z"/>
			<path fill="#E6E7E8" d="M43.224,46.55c0,0,0,0,0.002,0C43.224,46.55,43.224,46.55,43.224,46.55z"/>
		</g>
		<path fill="#FFFFFF" d="M42.463,47.584c0.524-0.715,0.871-1.181,0.991-1.34c1.354-1.771,7.7-10.5,19.397-4.332
			c0.593,0.3,0.907,0.502,0.907,0.502s45.847,26.602,48.401,28.081c2.555,1.478,10.157,5.13,13.272,0.049
			c3.117-5.083-3.571-11.087-7.411-13.998c-1.306-0.987-7.545-5.427-15.354-10.954C59.652,17.707,42.471,47.574,42.463,47.584z"/>
	</g>
</g>
</svg>
